<?xml version="1.0" standalone="no"?>
<!DOCTYPE svg PUBLIC "-//W3C//DTD SVG 20010904//EN" "http://www.w3.org/TR/2001/REC-SVG-20010904/DTD/svg10.dtd">
<svg version="1.0" xmlns="http://www.w3.org/2000/svg" width="300" height="250" viewBox="0 0 1088.000000 872.000000" preserveAspectRatio="xMidYMid meet">

<g transform="translate(0.000000,872.000000) scale(0.100000,-0.100000)" fill="#7B0323" stroke="none">
<path d="M1456 5888 c-26 -41 -39 -111 -39 -203 0 -73 5 -104 27 -165 16 -41 37 -110 49 -153 19 -72 19 -84 7 -158 -13 -84 -7 -108 24 -96 22 9 39 81 39 167 0 62 -8 97 -44 200 -38 112 -43 134 -42 215 0 52 7 110 16 138 13 42 13 49 0 62 -19 19 -20 19 -37 -7z"/>
<path d="M1157 5703 c-3 -5 -12 -32 -21 -62 -29 -98 -21 -163 39 -331 22 -61 26 -85 21 -130 -13 -110 -13 -105 14 -105 22 0 27 7 38 50 18 68 9 136 -33 251 -39 108 -45 179 -20 259 10 36 11 52 3 62 -12 14 -34 17 -41 6z"/>
<path d="M1783 5702 c-17 -11 -43 -117 -43 -175 0 -30 15 -93 40 -167 41 -121 47 -170 31 -228 -12 -40 -5 -62 20 -62 29 0 43 39 44 125 0 68 -6 96 -38 183 -42 116 -47 179 -21 255 13 38 14 51 4 62 -14 17 -20 18 -37 7z"/>
<path d="M7150 4955 l0 -605 120 0 120 0 0 188 c0 105 5 204 11 227 6 22 28 56 49 77 31 32 45 38 78 38 29 0 49 -7 69 -24 l28 -24 5 -239 5 -238 120 0 120 0 3 180 c1 99 -2 221 -7 270 -18 160 -81 242 -201 263 -94 17 -179 -5 -249 -64 l-31 -26 0 291 0 291 -120 0 -120 0 0 -605z"/>
<path d="M5370 5452 c-110 -49 -121 -199 -19 -254 92 -49 209 19 209 122 0 91 -110 167 -190 132z"/>
<path d="M3888 5443 l-28 -4 0 -545 0 -544 120 0 120 0 2 228 3 227 218 2 217 2 0 -230 0 -230 123 3 122 3 0 540 0 540 -122 3 -123 3 0 -206 0 -205 -220 0 -220 0 0 205 0 205 -79 0 c-44 0 -85 2 -93 3 -7 2 -25 2 -40 0z"/>
<path d="M9603 5434 c-2 -6 -3 -191 -1 -410 3 -373 4 -402 23 -446 69 -161 197 -239 394 -240 53 0 119 6 146 13 156 38 255 143 285 299 6 29 10 216 10 421 l0 369 -119 0 -120 0 -3 -377 c-3 -355 -4 -380 -23 -418 -37 -74 -122 -106 -221 -85 -57 13 -84 33 -110 81 -17 31 -19 65 -22 416 l-3 382 -116 3 c-78 2 -117 -1 -120 -8z"/>
<path d="M6243 5069 c-111 -14 -200 -67 -229 -136 -19 -43 -18 -117 2 -158 33 -71 102 -104 283 -136 135 -24 171 -40 171 -73 0 -43 -34 -61 -114 -60 -88 1 -134 22 -143 64 l-5 30 -120 0 -120 0 7 -37 c28 -150 157 -225 385 -224 216 1 324 63 350 200 13 71 0 125 -42 168 -45 48 -102 71 -248 99 -155 30 -158 31 -171 56 -24 45 47 75 130 56 33 -8 48 -19 63 -44 l20 -34 108 0 c60 0 111 3 113 8 3 4 -2 27 -9 52 -27 93 -122 154 -266 170 -45 6 -87 9 -93 9 -5 -1 -38 -5 -72 -10z"/>
<path d="M8564 5070 c-165 -33 -274 -178 -274 -365 0 -162 92 -308 222 -351 102 -33 273 -9 323 46 26 29 35 25 35 -15 l0 -35 120 0 120 0 0 355 0 355 -120 0 -120 0 0 -40 0 -40 -47 34 c-73 51 -173 73 -259 56z m220 -213 c101 -57 108 -230 12 -301 -39 -30 -152 -30 -193 0 -37 27 -73 99 -73 146 0 43 22 102 48 132 44 49 141 60 206 23z"/>
<path d="M5300 4705 l0 -355 120 0 120 0 0 355 0 355 -120 0 -120 0 0 -355z"/>
<path d="M1236 4970 c-323 -37 -589 -139 -704 -269 -58 -65 -66 -96 -72 -261 l-5 -155 -31 45 c-17 25 -35 59 -41 75 -7 22 -16 30 -34 30 l-24 0 1 -570 c0 -559 1 -571 21 -611 53 -102 197 -216 362 -288 91 -40 299 -97 426 -118 124 -19 441 -17 550 5 461 92 726 330 800 720 8 44 17 82 19 84 1 2 153 -28 337 -66 220 -46 337 -66 345 -60 54 45 51 815 -3 836 -8 3 -157 -24 -331 -61 -174 -36 -325 -66 -334 -66 -16 0 -18 15 -18 163 -1 110 -5 174 -14 200 -58 163 -283 286 -636 348 -131 24 -479 34 -614 19z m601 -79 c420 -71 661 -249 577 -427 -38 -79 -186 -173 -362 -228 -172 -54 -304 -70 -567 -71 -251 0 -320 7 -497 50 -230 57 -411 162 -448 261 -16 41 -12 102 10 143 58 115 288 223 570 270 173 28 190 29 405 25 130 -2 229 -10 312 -23z m559 -770 c-15 -14 -16 -9 -16 50 0 39 5 70 13 78 10 10 13 0 15 -50 2 -46 -1 -66 -12 -78z m-1836 -16 c18 -6 20 -16 20 -106 l0 -100 -41 23 c-23 12 -59 38 -80 56 l-39 34 0 94 0 94 60 -44 c34 -25 70 -48 80 -51z m1738 -22 l-3 -78 -65 -42 c-35 -24 -70 -43 -78 -43 -10 0 -12 19 -10 83 l3 82 70 37 c39 21 74 38 78 38 4 0 7 -35 5 -77z m-1412 -89 l84 -17 0 -93 c0 -52 -4 -94 -9 -94 -21 0 -160 32 -228 52 l-73 21 0 98 0 98 71 -24 c38 -13 108 -32 155 -41z m1184 -23 c0 -52 -4 -82 -13 -89 -13 -11 -180 -62 -203 -62 -19 0 -20 169 -1 174 6 2 50 15 97 29 127 37 120 40 120 -52z m-310 -80 l0 -89 -27 -6 c-45 -9 -195 -26 -231 -26 l-33 0 3 88 3 87 70 8 c39 4 97 12 130 16 33 5 66 9 73 10 9 1 12 -23 12 -88z m-523 60 l158 -6 0 -90 0 -90 -158 3 c-87 1 -167 7 -178 12 -16 9 -19 22 -19 94 0 87 3 98 26 89 8 -3 85 -8 171 -12z m1161 -427 c-12 -29 -13 -28 -16 25 -2 30 3 68 10 85 l13 31 3 -56 c2 -30 -3 -69 -10 -85z m-1858 -130 l40 -27 0 -104 0 -104 -31 18 c-17 10 -53 41 -80 70 l-49 52 0 97 0 96 40 -35 c21 -20 57 -48 80 -63z m1760 12 c0 -82 -1 -85 -36 -128 -38 -46 -104 -107 -116 -108 -5 0 -8 41 -8 92 l0 91 73 68 c39 38 75 68 80 69 4 0 7 -38 7 -84z m-1597 -98 c12 -7 76 -30 142 -53 l120 -40 3 -108 c2 -93 1 -107 -13 -107 -23 0 -157 47 -232 81 l-63 28 0 105 c0 110 3 116 43 94z m1357 -101 l0 -104 -87 -41 c-145 -67 -133 -72 -133 56 l0 109 38 11 c20 7 64 25 97 41 33 16 66 30 73 30 9 1 12 -26 12 -102z m-887 -27 c40 -5 101 -10 137 -10 36 0 71 -4 78 -8 9 -6 12 -36 10 -113 l-3 -104 -90 3 c-109 3 -235 20 -252 34 -14 11 -19 199 -6 212 4 4 18 4 31 1 13 -3 56 -10 95 -15z m585 -87 l-3 -108 -55 -12 c-30 -7 -95 -16 -143 -19 l-88 -7 3 109 3 109 103 12 c57 6 111 14 120 16 9 3 27 5 40 6 22 1 23 0 20 -106z"/>
<path d="M5073 3896 c-91 -29 -142 -95 -143 -187 0 -85 52 -135 170 -164 131 -32 162 -57 146 -119 -18 -74 -170 -50 -190 30 -6 22 -11 24 -76 24 -67 0 -70 -1 -70 -24 0 -133 192 -225 353 -170 105 36 156 159 106 260 -26 55 -63 77 -169 104 -105 26 -130 42 -130 78 0 35 9 48 42 61 44 17 97 -4 114 -45 14 -34 15 -34 79 -34 63 0 65 1 65 25 0 71 -72 144 -160 164 -58 13 -85 13 -137 -3z"/>
<path d="M5489 3881 c-36 -36 -37 -73 -4 -106 49 -49 135 -15 135 54 0 20 -9 37 -31 55 -40 34 -64 33 -100 -3z"/>
<path d="M7543 3900 c-80 -19 -150 -92 -160 -169 l-6 -42 68 3 c67 3 67 3 79 38 20 62 109 67 130 7 15 -41 -13 -89 -163 -280 -72 -92 -131 -169 -131 -172 0 -3 101 -5 225 -5 l225 0 0 60 0 60 -95 0 c-52 0 -95 3 -95 6 0 3 29 43 65 89 79 101 108 162 108 230 0 85 -46 146 -127 170 -54 16 -74 17 -123 5z"/>
<path d="M8055 3901 c-111 -27 -174 -139 -175 -308 0 -160 64 -286 161 -313 138 -40 259 39 290 187 19 93 8 247 -23 314 -45 99 -144 146 -253 120z m97 -132 c33 -18 49 -72 49 -172 1 -125 -13 -173 -54 -193 -42 -20 -80 -6 -104 38 -14 26 -18 56 -18 138 0 58 3 117 8 133 16 58 69 83 119 56z"/>
<path d="M8585 3901 c-89 -22 -151 -88 -168 -178 l-6 -33 68 0 c67 0 69 1 76 28 10 39 34 62 67 62 64 0 90 -42 63 -106 -8 -20 -76 -114 -150 -209 -74 -96 -135 -176 -135 -179 0 -4 101 -6 225 -6 l226 0 -3 58 -3 57 -92 3 c-51 1 -93 6 -93 9 0 3 26 40 59 82 80 105 111 168 111 231 0 96 -49 158 -140 179 -51 12 -63 12 -105 2z"/>
<path d="M9096 3848 c-13 -29 -62 -139 -110 -244 -47 -106 -86 -194 -86 -198 0 -3 63 -6 140 -6 l140 0 0 -60 0 -60 70 0 70 0 0 59 0 60 33 3 c31 3 32 5 35 51 4 55 -9 77 -44 77 l-24 0 -2 183 -3 182 -97 3 -98 3 -24 -53z m84 -213 l0 -105 -45 0 c-25 0 -45 4 -45 10 0 22 76 200 85 200 3 0 5 -47 5 -105z"/>
<path d="M5914 3676 c-18 -8 -35 -19 -38 -25 -11 -18 -26 -13 -26 9 0 18 -7 20 -65 20 l-65 0 0 -200 0 -200 64 0 64 0 3 126 c4 123 5 126 32 150 35 30 71 31 91 2 13 -18 16 -51 16 -150 l0 -128 71 0 71 0 -3 153 c-4 140 -6 155 -28 191 -38 61 -116 82 -187 52z"/>
<path d="M6342 3679 c-56 -14 -126 -80 -141 -134 -41 -151 60 -275 223 -275 55 0 139 33 168 66 22 25 49 90 41 98 -11 10 -133 7 -133 -4 0 -24 -41 -50 -80 -50 -56 0 -90 34 -90 90 0 72 31 109 93 110 36 0 77 -26 77 -50 0 -6 28 -10 65 -10 62 0 65 1 65 24 0 92 -157 166 -288 135z"/>
<path d="M6845 3681 c-70 -17 -134 -69 -155 -126 -18 -48 -14 -128 9 -173 73 -144 334 -150 407 -10 23 44 18 48 -47 48 -51 0 -66 -4 -91 -25 -29 -24 -69 -32 -103 -19 -13 6 -45 53 -45 68 0 3 69 7 153 8 152 3 152 3 155 27 6 42 -19 109 -54 145 -52 53 -146 77 -229 57z m118 -109 c36 -31 21 -42 -58 -42 -79 0 -94 10 -57 42 32 29 81 29 115 0z"/>
<path d="M5477 3673 c-4 -3 -7 -93 -7 -200 l0 -193 70 0 70 0 0 200 0 200 -63 0 c-35 0 -67 -3 -70 -7z"/>
</g>
</svg>
